<svg width="22" height="25" fill="none" xmlns="http://www.w3.org/2000/svg"><path d="M13.105 20.435H7.544V25h-3.17v-4.565H.936v-2.623h3.436v-2.275H.937v-2.606h3.436V.828h8.915c2.59 0 4.643.659 6.16 1.976 1.515 1.317 2.274 3.099 2.274 5.345 0 2.358-.73 4.179-2.192 5.462-1.45 1.273-3.514 1.915-6.192 1.926H7.544v2.274h5.561v2.624zM7.544 12.93h5.744c1.716 0 3.022-.404 3.918-1.212.896-.808 1.345-1.987 1.345-3.536 0-1.406-.465-2.54-1.395-3.404-.93-.874-2.186-1.317-3.768-1.328H7.544v9.48z" fill="#A0A4A8"/></svg>